<?xml version="1.0" encoding="iso-8859-1"?>
<!-- Generator: Adobe Illustrator 19.0.0, SVG Export Plug-In . SVG Version: 6.00 Build 0)  -->
<svg version="1.1" id="Capa_1" xmlns="http://www.w3.org/2000/svg" xmlns:xlink="http://www.w3.org/1999/xlink" x="0px" y="0px"
	 viewBox="0 0 512 512" style="enable-background:new 0 0 512 512;" xml:space="preserve">
<path style="fill:#6F7D96;" d="M466.399,192.999l-0.599,112.5l-66.101,5.101c-45.899,6.599-82.5,43.2-89.099,89.099l-5.099,66.099
	H206.5l-5.099-66.099c-6.599-45.899-43.2-82.5-89.099-89.099l-66.101-5.101l-0.599-112.5C87.001,173.8,182.5,151,256,151
	S424.999,173.8,466.399,192.999z"/>
<path style="fill:#66728B;" d="M466.399,192.999l-0.599,112.5l-66.101,5.101c-45.899,6.599-82.5,43.2-89.099,89.099l-5.099,66.099
	H256V151C329.5,151,424.999,173.8,466.399,192.999z"/>
<path style="fill:#E0E4EC;" d="M256,211c-24.901,0-45,20.099-45,45c0,24.899,20.099,45,45,45s45-20.101,45-45
	C301,231.099,280.901,211,256,211z"/>
<path style="fill:#D1D7E3;" d="M301,256c0,24.899-20.099,45-45,45v-90C280.901,211,301,231.099,301,256z"/>
<path style="fill:#495A79;" d="M256,0C115.3,0,0,115.3,0,256s115.3,256,256,256s256-115.3,256-256S396.7,0,256,0z M256,452
	c-107.401,0-196-88.601-196-196c0-107.401,88.599-196,196-196s196,88.599,196,196C452,363.399,363.401,452,256,452z"/>
<path style="fill:#42516D;" d="M512,256c0,140.7-115.3,256-256,256v-60c107.401,0,196-88.601,196-196c0-107.401-88.599-196-196-196
	V0C396.7,0,512,115.3,512,256z"/>
<g>
</g>
<g>
</g>
<g>
</g>
<g>
</g>
<g>
</g>
<g>
</g>
<g>
</g>
<g>
</g>
<g>
</g>
<g>
</g>
<g>
</g>
<g>
</g>
<g>
</g>
<g>
</g>
<g>
</g>
</svg>
